<svg xmlns="http://www.w3.org/2000/svg" width="211.675" height="51.494"><path data-name="パス 3807" d="M103.848 3.826a1.268 1.268 0 00-.5-.337 1.386 1.386 0 00.119-.551 1.363 1.363 0 00-1.025-1.321l-.957-.277a1.289 1.289 0 00-.353-.049 1.267 1.267 0 00-1.221.927c-.24.867-.505 1.754-.792 2.653-.083.254-.156.472-.22.658l-.107.007a1.227 1.227 0 00-.209.025v-.03q.01-.61.027-.826a1.266 1.266 0 00-1.261-1.372c-.005 0-2.765.035-2.961.035-1.049 0-1.652 0-1.809-.012l-.1-.005h-.007a1.446 1.446 0 00-.374-.053 1.3 1.3 0 00-.944.413 1.371 1.371 0 00-.169-.2 1.35 1.35 0 00-.22-.166 1.316 1.316 0 00.036-.317 1.429 1.429 0 00-.451-1.025l-.609-.622A1.259 1.259 0 0088.835 1a1.274 1.274 0 00-.569.134 7.275 7.275 0 01-3.163.592 1.266 1.266 0 00-1.126 1.832.837.837 0 00-.108.1 1.146 1.146 0 00-.136.174 3.468 3.468 0 00-.979-1.393 4.116 4.116 0 00-2.781-.967 4.321 4.321 0 00-3.006 1.147 4.038 4.038 0 00-.86 1.155 1.266 1.266 0 00-1.243-1.027h-.1V2.7a1.319 1.319 0 00.125-.563 1.35 1.35 0 00-1.3-1.347s-.906-.058-.933-.058a1.269 1.269 0 00-.867.342 1.192 1.192 0 00-.134.151 1.4 1.4 0 00-1-.5s-.872-.051-.9-.051a1.264 1.264 0 00-1.265 1.208 1.251 1.251 0 00-.757.649v-.244a1.265 1.265 0 00-1.268-1.266h-1.093a1.228 1.228 0 00-.911-.414s-.875-.044-.9-.044a1.259 1.259 0 00-.872.349 1.18 1.18 0 00-.1.109h-1.048a1.265 1.265 0 00-1.266 1.266v.438a1.268 1.268 0 00-.7 1.134v.54a1.267 1.267 0 00.9 1.213v.953a1.267 1.267 0 00-.526 2.054l.519.568a1.271 1.271 0 00.936.412 1.237 1.237 0 00.2-.016 6.884 6.884 0 002.025-.7 1.357 1.357 0 00.414-.145 6.9 6.9 0 001.015.483 6.626 6.626 0 001.308.4 1.27 1.27 0 001.149-.409l.556-.623a.637.637 0 11.43-1.134v.743a1.266 1.266 0 001.266 1.266h.783a1.252 1.252 0 00.715-.222h3.842a1.267 1.267 0 001.267-1.266v-.139c.013.017.022.037.037.054a2.222 2.222 0 001.693.832 2.282 2.282 0 001.041-.258l.317.313a1.265 1.265 0 001.179.335A3.854 3.854 0 0083.9 6.195a.583.583 0 01.31 1.123 1.263 1.263 0 00.513 1.208l.744.537a1.263 1.263 0 001.243.139 4.135 4.135 0 001.931-1.591 4.261 4.261 0 00.48-1.1c.375 0 .7-.005.976-.005a1.241 1.241 0 011.98.27h.042q1.092-.036 2.583-.036c.508 0 1.052 0 1.632.009.466.005.77.011.915.019h.072a1.125 1.125 0 00.214-.041 1.268 1.268 0 00.073.52 7.348 7.348 0 00.448 1.048 1.361 1.361 0 001.761.517l1.712-.2c.409-.049.789-.1 1.137-.15a1.268 1.268 0 001.119.672 1.247 1.247 0 00.472-.092q.6-.243.921-.407a1.266 1.266 0 00.581-1.644 12.154 12.154 0 00-1.912-3.173m-28.74 2.255h-.348v-.112h.1a1.252 1.252 0 00.792-.284 4.377 4.377 0 00.04.548 1.257 1.257 0 00-.589-.152" fill="#fff"/><path data-name="パス 3808" d="M156.1 5.064a1.28 1.28 0 00-.094-.481l-.319-.776a1.265 1.265 0 00-.985-.772l.021-.213a1.266 1.266 0 00-1.261-1.393h-.054a1.328 1.328 0 00-.787-.442l-.934-.18a1.219 1.219 0 00-.24-.023 1.264 1.264 0 00-1.242 1.018c-.177 0-.37.007-.579.007a1.265 1.265 0 00-.978.461l-.008.012a.741.741 0 00-.022-.083 6.841 6.841 0 00-.676-1.149 1.268 1.268 0 00-1.608-.362l-.227.12h-.095a1.274 1.274 0 00-.523.113l-.519.235a1.266 1.266 0 00-.427.317l-.6-.2a1.282 1.282 0 00-.4-.064 1.266 1.266 0 00-1.19.832 4.531 4.531 0 01-1.518 2.152l-.045-.256a1.267 1.267 0 00-2.113-.72q-.355.333-.739.63a1.261 1.261 0 00-.286-.721 8.474 8.474 0 00-1.572-1.49 1.268 1.268 0 00-1.514.022l-.713.548a1.267 1.267 0 00-.571 1.028 1.057 1.057 0 00.012.125 1.366 1.366 0 00-.532-.59l-.726-.428a1.265 1.265 0 00-1.725.429 3.861 3.861 0 01-1.04 1.123 4.278 4.278 0 01-1.435.683c-.023.007-.044.02-.067.028v-.279a1.315 1.315 0 00-.045-.338l.338-.186a1.266 1.266 0 00.544-1.631q-.317-.7-.523-1.073a1.267 1.267 0 00-1.111-.657 1.248 1.248 0 00-.527.116l-.368.169a1.248 1.248 0 00-.466.093l-.512.207a1.256 1.256 0 00-.483.346q-.634.018-1.25.018h-.72c-.151 0-.351-.007-.6-.019h-.064a1.267 1.267 0 00-1.267 1.267v.588a1.3 1.3 0 00-.351.243 1.256 1.256 0 00-.278.4 1.292 1.292 0 00-.589-.148 1.361 1.361 0 00-.762.254v-.518a1.352 1.352 0 00-1-1.861c-.03-.005-.06-.011-.091-.014l-.963-.111a1.41 1.41 0 00-.145-.008 1.269 1.269 0 00-.854.331c-.03.028-.06.057-.087.087l-.586-.052c-.038 0-.076-.005-.114-.005a1.264 1.264 0 00-1.265 1.312c.017.5.027 1 .027 1.519a2.782 2.782 0 01-.152 1.085 1.286 1.286 0 01-.553.577.519.519 0 11-.788-.566 1.265 1.265 0 00-.849-.326 1.351 1.351 0 00-.2.015l.077-.055.193-.151a1.342 1.342 0 00.938-1.124 1.4 1.4 0 00.136-.076l.456-.291a1.265 1.265 0 00.459-1.622 7.7 7.7 0 00-.655-1.112 1.267 1.267 0 00-1.609-.389l-.337.173a1.267 1.267 0 00-.46.112l-.519.235a1.271 1.271 0 00-.7.82 1.225 1.225 0 00-.043.258 1.269 1.269 0 00-.955-.6l-.99-.139a1.3 1.3 0 00-.176-.012 1.268 1.268 0 00-1.267 1.267v3.359a2.661 2.661 0 001.07 2.393 3.85 3.85 0 002.128.445h.527c.617 0 1.277-.029 1.962-.088a.803.803 0 111.557-.395q.26.172.749.482a1.272 1.272 0 001.347 0 4.074 4.074 0 00.851-.705c.238.164.422.283.551.361a1.276 1.276 0 00.648.177 1.262 1.262 0 00.493-.1 13.98 13.98 0 001.275-.577 8.018 8.018 0 001.717-1.259.436.436 0 01.71-.391l.558-.017a3.06 3.06 0 01-.314.194 1.267 1.267 0 00.042 2.246 4.138 4.138 0 01.6.352 1.266 1.266 0 001.385.084 4.3 4.3 0 001.73-1.807 4.672 4.672 0 00.394-1.128h.142c.226 0 .433.006.625.018h.082a.4.4 0 01.714.254c.12.135.261.314.425.533a1.277 1.277 0 001.294.477v.481a1.267 1.267 0 001.266 1.274h.8a1.267 1.267 0 001.267-1.267v-2.48a8.023 8.023 0 00.559-.6 1.318 1.318 0 00.612-1.119c0-.034-.011-.065-.013-.1a1.255 1.255 0 00.381.449 7.614 7.614 0 011.183 1.105.53.53 0 00.032.035 4.81 4.81 0 01-.487.122l-.079.014a1.338 1.338 0 00-1.321 1.3 1.269 1.269 0 00.159.615l.474.86a1.266 1.266 0 001.111.657 1.323 1.323 0 00.241-.022 8.137 8.137 0 001.449-.443 13.488 13.488 0 004.006-2.416 1.287 1.287 0 00.171.167l.221.173a1.267 1.267 0 00-.093 2.039c.325.262.552.449.683.564a1.268 1.268 0 001.254.24 7.321 7.321 0 002.214-1.255 7.7 7.7 0 002-2.644q.329-.729.485-1.107c.014-.034.027-.068.038-.1a1.32 1.32 0 00.148-.079l.457-.285a1.223 1.223 0 00.278-.253c.02.123.044.253.056.362a1.25 1.25 0 00.166.508l-.139.1a1.268 1.268 0 00-.19 1.947l.576.567a.9.9 0 00.1.088c.046.771.5 2.229 3.3 2.229a7.6 7.6 0 002.084-.249 1.264 1.264 0 00.92-1.175l.028-.81a1.257 1.257 0 00-.22-.758 1.335 1.335 0 001-1.307" fill="#fff"/><path data-name="パス 3809" d="M209.932 3.473a1.354 1.354 0 00.149-.625 1.262 1.262 0 00-.234-.734c-.306-.433-.5-.7-.576-.8a1.269 1.269 0 00-1.6-.359 4.47 4.47 0 01-1.051.336l-.037.008-.338-.027h-.154a1.421 1.421 0 00-.784-.3s-.79-.05-.818-.05a1.266 1.266 0 00-.814.3l-.139.061-.66-.061a1.139 1.139 0 00-.117-.006 1.265 1.265 0 00-1.267 1.267v.4c-.06-.064-.119-.117-.18-.187a4.363 4.363 0 01-.429-.583v-.021a1.356 1.356 0 00-1.182-1.35l-.81-.118a1.271 1.271 0 00-1.194.49 1.408 1.408 0 00-.837-.341s-.887-.058-.914-.058a1.265 1.265 0 00-1.232.97 1.247 1.247 0 00-.445.163 1.439 1.439 0 00-.394-.3l-.754-.36a1.2 1.2 0 00-.221-.082 1.507 1.507 0 00-.661-.252l-.817-.111a1.214 1.214 0 00-.17-.011 1.285 1.285 0 00-.365.053 1.381 1.381 0 00-.27-.043l-.762-.055h-.092a1.27 1.27 0 00-.737.236l-.485-.22a1.264 1.264 0 00-1.65.575 6.986 6.986 0 01-.7 1.1v-.042a1.266 1.266 0 00-1.267-1.266h-2.859a1.266 1.266 0 00-.248.023l-.815-.364a1.266 1.266 0 00-1.628.55 6.14 6.14 0 01-1.044 1.414 1.269 1.269 0 00-.371.9v.318a1.263 1.263 0 00.087.464 1.25 1.25 0 00-.148.372 2.63 2.63 0 00-.679-.781 2.52 2.52 0 00-.2-.137 1.267 1.267 0 00.1-1.756l-.478-.554a1.273 1.273 0 00-1.315-.389l-.348.1c-.284.061-.668.12-1.145.173a7.524 7.524 0 01-.776.062l-.221-.007a1.269 1.269 0 00-1.246 1.5l.153.817a1.273 1.273 0 00.316.628 13.51 13.51 0 01-.858.8.566.566 0 01-.947.526 1.273 1.273 0 00-.371.055l-.2.061a1.887 1.887 0 00-.214-.679c.064-.065.117-.116.158-.154a1.266 1.266 0 00.094-1.784l-.044-.049c.041-.164.073-.3.093-.4a1.268 1.268 0 00-1.216-1.514 5.451 5.451 0 01-1.688-.235 1.249 1.249 0 00-.43-.075 1.266 1.266 0 00-1.224.941s-.213.8-.218.826a1.231 1.231 0 00-.843.644v-.449a1.266 1.266 0 00-1.267-1.266h-1.258a1.39 1.39 0 00-1.241-.907l-.894-.042a1.267 1.267 0 00-1.226.949h-1.308a1.265 1.265 0 00-1.266 1.266v.644a1.264 1.264 0 00.554 1.047v.421a1.266 1.266 0 00.721 1.144.8.8 0 00.051.069c-.145.031-.3.06-.45.084a1.267 1.267 0 00-.779 2.051l.484.6a1.268 1.268 0 00.983.467 1.284 1.284 0 00.254-.025 9.819 9.819 0 002.441-.815 9.106 9.106 0 002.479.857 1.229 1.229 0 00.248.025 1.263 1.263 0 001.064-.581l.26-.4c.02.014.035.032.056.045.351.228.615.4.79.506a1.269 1.269 0 001.654-.28c.1-.13.2-.252.3-.368a2.049 2.049 0 00.752.592 3.427 3.427 0 001.393.225 10.523 10.523 0 001.473-.152 1.265 1.265 0 001.073-1.2l.021-.482.332.29a1.271 1.271 0 00.352.217 2.146 2.146 0 001.08 1.031 3.465 3.465 0 001.505.316 3.87 3.87 0 002.278-.658 2.848 2.848 0 00.714-.741 1.22 1.22 0 00.062.229 1.265 1.265 0 00.688.716l.616.263a1.24 1.24 0 00.208.069 1.265 1.265 0 00.9.372h.727a1.264 1.264 0 00.591-.146h3.923a1.26 1.26 0 00.992-.488l.279.127c.04.018.081.034.122.048a1.265 1.265 0 00.94.417h.706a1.266 1.266 0 00.878-.353l.117.1a1.268 1.268 0 001.247.244 5.322 5.322 0 00.945-.433q.1.106.2.207a1.27 1.27 0 001.689.055l.566-.474a1.263 1.263 0 001.063.582h1.857a1.264 1.264 0 00.983.228 7.349 7.349 0 001.7-.61 8.523 8.523 0 001.734-1.069 1.264 1.264 0 001.263 1.222h2.1l.371.232a1.27 1.27 0 001.47-.093l.047-.04a1.265 1.265 0 00.725.227h.783a1.267 1.267 0 001.267-1.267V5.896a1.265 1.265 0 00.636-1.1v-.588a1.267 1.267 0 00-.232-.732m-46.023 3.052a1.257 1.257 0 00-.6-.263 10.33 10.33 0 01-.436-.074 4.5 4.5 0 00.465-.867 1.276 1.276 0 00.088-.465v-.152a1.258 1.258 0 00.579-.589c.037.341.067.6.091.775a1.271 1.271 0 00.546.877c-.285.308-.529.559-.735.758" fill="#fff"/><path data-name="パス 3810" d="M102.144 19.702a1.775 1.775 0 00-1.588-.984l-8.583.007a1.776 1.776 0 00-1.412.7l-9.726 12.841-9.7-12.839a1.772 1.772 0 00-1.413-.705l-8.583-.007a1.774 1.774 0 00-1.415 2.844l10.037 13.266a1.772 1.772 0 001.414.7h7.189l-9.79 12.926a1.774 1.774 0 001.414 2.845h8.563a1.771 1.771 0 001.413-.7l22.006-29.037a1.772 1.772 0 00.175-1.861" fill="#fff"/><path data-name="パス 3811" d="M173.986 12.817a1.773 1.773 0 00-1.589-.986h-32.17a1.773 1.773 0 00-1.414.7l-4.8 6.339a1.751 1.751 0 00-.666-.147h-25.09a1.774 1.774 0 00-1.418.708l-5.378 7.158a1.775 1.775 0 001.418 2.84l11.854-.019-8.52 11.206-14.535.016a1.77 1.77 0 00-1.408.7l-5.439 7.122a1.774 1.774 0 001.41 2.85H111.3a1.772 1.772 0 001.412-.7l21.447-28.239a1.757 1.757 0 00.667.147h19.888l-2.33 3.059h-8.335a1.775 1.775 0 00-1.426.72L126.3 48.366a1.774 1.774 0 001.406 2.828l8.447.095a1.773 1.773 0 001.426-.719l10.575-14.3 8.4-.028a1.773 1.773 0 001.406-.7l15.848-20.862a1.775 1.775 0 00.176-1.861" fill="#fff"/><path data-name="パス 3812" d="M211.49 12.836a1.776 1.776 0 00-1.589-.985h-5.4a1.716 1.716 0 01-1.764 0h-5.4a1.773 1.773 0 00-1.414.7l-3.915 5.165a1.767 1.767 0 00-.348 1h-6.111l3.037-4.016a1.775 1.775 0 00-1.414-2.844l-8.584-.006a1.771 1.771 0 00-1.413.7L161.59 33.117a1.773 1.773 0 001.407 2.844l8.579.036a1.771 1.771 0 001.411-.7l4.209-5.531h5.628l-14.036 18.7a1.774 1.774 0 001.419 2.838h8.547a1.772 1.772 0 001.417-.708l15.656-20.831h3.444a1.775 1.775 0 001.413-.7l5.69-7.5a1.711 1.711 0 011.027-1.7l3.914-5.165a1.776 1.776 0 00.175-1.86" fill="#fff"/><path data-name="パス 3813" d="M57.96 48.217c-2.858-1.8-8.681-6.265-11.866-8.831 4.072-2.712 5.641-4.734 6.979-7.406a5.058 5.058 0 00.22-3.945 9.754 9.754 0 00-4.859-5.18 48.541 48.541 0 00-7.374-2.928 96 96 0 016.5-7.869 347.675 347.675 0 018.41-9.053l.005-.007.019-.02a1.664 1.664 0 00.121-.155c.023-.03.05-.057.07-.088l.007-.012a1.581 1.581 0 00.09-.173c.018-.036.041-.071.056-.108a1.846 1.846 0 00.059-.193c.01-.037.026-.072.033-.11v-.005c.006-.025.005-.051.009-.076a1.668 1.668 0 00.028-.233v-.008c0-.037 0-.076-.007-.114a1.563 1.563 0 00-.012-.193l-.005-.022c-.006-.037-.018-.073-.027-.11l-.006-.023c-.013-.052-.021-.1-.039-.156 0-.012-.01-.024-.015-.037s0-.014-.006-.021-.015-.022-.02-.035c-.014-.034-.03-.067-.046-.1s-.027-.07-.046-.1a1.776 1.776 0 00-.13-.186c-.017-.021-.03-.045-.047-.066s-.015-.023-.024-.033-.036-.031-.053-.049a1.459 1.459 0 00-.116-.107 1.579 1.579 0 00-.155-.131c-.025-.017-.051-.03-.076-.046a1.857 1.857 0 00-.123-.07 1.782 1.782 0 00-.23-.1c-.032-.012-.063-.026-.1-.036l-.071-.019a1.844 1.844 0 00-.418-.055 1.766 1.766 0 00-.474.074c-.02.005-.04 0-.06.009h-.008c-.976.309-22.14 7.053-30.8 13.664-2.74 2.092-4.238 4.789-4.006 7.214a4.973 4.973 0 00.726 2.144c-3.5 3.426-9.495 10.276-4.912 17.3.236.361.637.948 1.206 1.69-2.606 1.116-5.99 2.373-9.067 3.515-2.548.945-4.748 1.762-6.221 2.39a1.773 1.773 0 00.7 3.405h18.159a1.786 1.786 0 00.618-.111l3.837-1.426c.616.452 1.255.9 1.935 1.339a1.77 1.77 0 00.962.283h12.244a1.757 1.757 0 001.53-.917c.342.224.681.444 1.005.647a1.769 1.769 0 00.941.27h14.008a1.773 1.773 0 00.947-3.273M25.472 32.632a11.519 11.519 0 001.664 4.279c-1.541-1.824-2.023-3.065-1.909-3.539a5.149 5.149 0 01.245-.74m14.426-1.515c-.576.331-1.237.688-1.933 1.055a7.989 7.989 0 01-.9-1.446 3.859 3.859 0 01-.542-2.188 20 20 0 014.015 1.346.7.7 0 01.264.2c.019.1-.16.606-.9 1.033" fill="#fff"/><path data-name="パス 3814" d="M67.124 4.406h-6.281v-.54h2.742V3.63h-2.042V2.294h2.022v-.457l.83.041c.042 0 .063.026.063.077s-.035.092-.1.11v.229h2.112V3.63h-2.126v.236h2.784zm0 3.344l-.554.623a5.454 5.454 0 01-1.046-.325 4.728 4.728 0 01-.962-.478l.443-.325H63.08a1.631 1.631 0 01.388.325c0 .07-.058.09-.173.063a5.914 5.914 0 01-1.89.706l-.52-.568c.43-.074.715-.129.858-.166a2.26 2.26 0 00.783-.36h-.783V4.607h4.529v2.638h-.8a4.077 4.077 0 001.648.5m-3.546-4.937h-1.246v.339h1.246zm1.919 2.306h-3v.228h3zm0 .692h-3v.249h3zm0 .706h-3v.236h3zm.124-3.7h-1.281v.339h1.281z" fill="#231815"/><path data-name="パス 3815" d="M71.6 5.743l-.5.519a13.125 13.125 0 01-.554-.575v2.514h-.783V5.68a4.581 4.581 0 01-.774.61l-.472-.513a4.391 4.391 0 001.1-.907 3.979 3.979 0 00.747-1.191h-1.523v-.575h.907V1.948l.823.049c.075 0 .111.032.111.082s-.036.1-.111.118v.907h.824a4.737 4.737 0 01-.817 1.676 3.7 3.7 0 001.019.963m3.5 2.236h-4.092v-.616h1.655V4.704h-1.344v-.687h1.329V2.003l.852.055c.074 0 .111.032.111.083s-.041.088-.124.111v1.765h1.37v.686h-1.37v2.645h1.613z" fill="#231815"/><path data-name="パス 3816" d="M82.737 5.265q0 2.064-2.382 2.617a70.006 70.006 0 00-.623-.609 4.083 4.083 0 001.461-.589 1.6 1.6 0 00.643-1.371 1.992 1.992 0 00-.38-1.211 1.705 1.705 0 00-1.067-.673q-.469 3.055-1.641 3.809a1.2 1.2 0 01-.643.222 1 1 0 01-.741-.4 2.084 2.084 0 01-.444-1.419 2.729 2.729 0 01.907-2.086 3.078 3.078 0 012.147-.809 2.885 2.885 0 011.952.657 2.326 2.326 0 01.811 1.864M79.51 3.445a2.371 2.371 0 00-1.592 1.254 2.313 2.313 0 00-.195.942 2.282 2.282 0 00.077.622c.083.263.208.4.374.4.082 0 .2-.075.339-.222a3.317 3.317 0 00.72-1.405 7.9 7.9 0 00.277-1.587" fill="#231815"/><path data-name="パス 3817" d="M90.118 4.44q0 .374-.021.8-.762 0-2.036.014a3.7 3.7 0 01-.491 1.683 2.9 2.9 0 01-1.357 1.1l-.748-.541a2.519 2.519 0 001.232-.841 2.628 2.628 0 00.464-1.429l-2.34.1-.042-.789c.208.005.411.007.61.007h1.01c.148 0 .412-.005.789-.014q0-.457-.034-.99a16.21 16.21 0 01-1.62.152c-.078-.143-.22-.376-.422-.7a8.447 8.447 0 003.725-.727l.609.623q.09.09.09.138c0 .051-.033.077-.1.077a.241.241 0 01-.124-.042 10.087 10.087 0 01-1.219.332c.005.125.006.5.006 1.129q1.344-.048 2.016-.09" fill="#231815"/><path data-name="パス 3818" d="M97.354 4.6q-.021.235-.033.907-.231-.013-.974-.021-2.6-.027-4.269.028l-.04-.838a.159.159 0 01.02-.086.052.052 0 01.065-.018 2.393 2.393 0 00.382.049q.231.013 1.888.013.3 0 2.961-.034" fill="#231815"/><path data-name="パス 3819" d="M104.6 7.517q-.284.145-.817.36a7.566 7.566 0 00-.374-.8q-.837.145-2.035.291l-2.043.235a.13.13 0 01-.118.09.1.1 0 01-.083-.055c-.051-.093-.164-.369-.339-.831.028 0 .21-.009.547-.028l.305-.021c.1-.018.181-.1.242-.256q.153-.36.436-1.232.443-1.384.81-2.708l.956.277c.073.019.111.053.111.1s-.052.1-.153.125q-.609 1.731-1.35 3.628 1.115-.09 2.334-.291a9.16 9.16 0 00-.866-1.322q.345-.193.741-.4a11.006 11.006 0 011.7 2.839" fill="#231815"/><path data-name="パス 3820" d="M111.319 6.691q-.021.3-.069.893-.99.084-1.856.083h-.526a2.923 2.923 0 01-1.44-.242 1.5 1.5 0 01-.492-1.33V2.737l.99.139c.052 0 .077.03.077.076s-.039.1-.118.125q-.027.484-.042 1.966a7.961 7.961 0 001.278-.807 7.5 7.5 0 001.1-1.007l.8.637a.1.1 0 01.042.076q0 .09-.111.09a.214.214 0 01-.075-.014c-.1.083-.257.206-.465.367a12.328 12.328 0 01-2.576 1.454c0 .088-.007.219-.007.395a.64.64 0 00.181.533 1.14 1.14 0 00.553.153c.061 0 .137.006.229.006a14.713 14.713 0 002.52-.235m.056-3.739l-.464.277a10.581 10.581 0 00-.589-.935l.52-.235a8.86 8.86 0 01.533.893m.865-.277l-.457.291q-.18-.333-.589-.963l.5-.256a6.391 6.391 0 01.546.928" fill="#231815"/><path data-name="パス 3821" d="M115.9 3.242c0 .033-.026.067-.076.1 0 .263 0 .656-.007 1.177a6.534 6.534 0 01-.138 1.427 3.247 3.247 0 01-.665 1.329 2.835 2.835 0 01-.672.582q-.471-.3-.72-.464a2.518 2.518 0 001.06-1.17 4.044 4.044 0 00.249-1.572q0-.8-.028-1.565l.921.083c.05.005.076.028.076.069m3.767 2.68a6.776 6.776 0 01-1.447 1.059c-.148.084-.534.256-1.157.52q-.187-.111-.546-.36a.9.9 0 00.069-.34v-.851q0-1.469-.042-3.22l.963.111a.08.08 0 01.076.083c0 .046-.035.085-.1.117-.005.181-.007.476-.007.887q0 .844-.034 2.534a5.807 5.807 0 001.6-1.031 8.33 8.33 0 00.415-.409c.019-.023.035-.035.048-.035s.031.028.035.083c.018.2.062.488.132.852" fill="#231815"/><path data-name="パス 3822" d="M126.5 5.117q-.326-.021-.706-.021h-1.3l.007.09a3.835 3.835 0 01-.381 1.738 3.04 3.04 0 01-1.226 1.274 5.309 5.309 0 00-.8-.471 2.811 2.811 0 001.177-1.06 3.127 3.127 0 00.319-1.543q-1.2.006-2.348.048v-.4c0-.181-.007-.315-.007-.4q.818.02 1.441.02 1.155 0 3.815-.069zm-.886-2.521q-.013.575-.014.81-1.538 0-3.621.035v-.81q.414.021.665.021h.72q1.094 0 2.25-.056m.935.333l-.485.249a7.573 7.573 0 00-.492-.983l.513-.208a6.956 6.956 0 01.464.942m.9-.243l-.478.263a9.091 9.091 0 00-.5-1.018l.5-.228q.186.339.478.983" fill="#231815"/><path data-name="パス 3823" d="M132.168 3.935c0 .051-.043.074-.125.069a6.537 6.537 0 01-1.046 1.087v3.047h-.8l.014-2.52a7.112 7.112 0 01-1.559.8 9.344 9.344 0 00-.49-.616 5.561 5.561 0 001.852-.883 5.184 5.184 0 001.375-1.485l.726.429a.085.085 0 01.049.076" fill="#231815"/><path data-name="パス 3824" d="M139.728 5.161a12.164 12.164 0 01-3.635 2.187 6.815 6.815 0 01-1.219.375q-.235-.43-.477-.866c0-.018.018-.028.055-.028a1.816 1.816 0 00.3-.034 8.028 8.028 0 002.21-.817 11.925 11.925 0 002.582-1.835q.055.339.187 1.018m-3.054-1.233a5.452 5.452 0 01-.74.623 8.893 8.893 0 00-1.385-1.288q.041-.027.79-.6a7.182 7.182 0 011.335 1.267" fill="#231815"/><path data-name="パス 3825" d="M146.333 3.797c-.1.244-.257.6-.47 1.073a6.4 6.4 0 01-1.648 2.188 6.034 6.034 0 01-1.829 1.039q-.205-.182-.719-.6a5.988 5.988 0 002.236-1.288 5.069 5.069 0 001.253-1.987l-1.536.021a7.235 7.235 0 01-1.462 1.537c-.142-.12-.357-.291-.643-.513a5.783 5.783 0 002.028-2.8l.859.284c.06.023.091.058.091.1s-.04.085-.118.09c-.066.125-.167.309-.306.554.181 0 .456 0 .825-.007h.83a1.385 1.385 0 00.354-.042l.255.34m.215-.831l-.464.283a8.026 8.026 0 00-.589-.941l.521-.236a8.276 8.276 0 01.532.894m.929-.222l-.457.284q-.18-.325-.589-.956l.5-.263a5.5 5.5 0 01.548.935" fill="#231815"/><path data-name="パス 3826" d="M154.836 5.064a.074.074 0 01-.084.083.2.2 0 01-.1-.035q-1.023.3-1.917.651v1.066l-.817-.006c0-.065.006-.171.006-.319v-.387q-.831.333-.831.824 0 .423.949.423a7.324 7.324 0 002.015-.277l-.028.81a6.435 6.435 0 01-1.738.2q-2.034 0-2.035-1.108a1.289 1.289 0 01.568-1 5.082 5.082 0 011.052-.6c-.014-.314-.123-.47-.325-.47a1.107 1.107 0 00-.713.262q-.285.229-.534.471c-.138.134-.31.3-.512.492l-.239-.235-.336-.333a5.22 5.22 0 001.745-1.876q-.5.055-1.219.09a8.153 8.153 0 00-.111-.72 13.8 13.8 0 001.586-.07 5.013 5.013 0 00.236-.955l.934.18c.056.009.084.037.084.083s-.038.076-.111.1q-.057.194-.187.533.366-.04 1.295-.256l-.076.761q-.513.091-1.531.215a4.022 4.022 0 01-.429.693 1.635 1.635 0 01.4-.049q.636 0 .824.741.768-.346 1.869-.769z" fill="#231815"/><path data-name="パス 3827" d="M163.125 7.517l-.451.7a4 4 0 00-5.421-.042l-.485-.6a7.074 7.074 0 002.562-.865 15.669 15.669 0 01-1.315-1.247l.5-.436h-1v-.63h1.994v-.838h-2.548v-.642h2.534v-.949l.831.042c.074 0 .111.032.111.083s-.039.088-.118.111v.713h2.569v.644h-2.59v.838h1.87v.457a3.883 3.883 0 01-.644 1.032 5.272 5.272 0 01-.886.851 6.772 6.772 0 002.493.776m-2.036-2.486H158.7a6.126 6.126 0 001.26 1.315 3.485 3.485 0 001.129-1.315" fill="#231815"/><path data-name="パス 3828" d="M170.256 6.988l-.035.824a9.779 9.779 0 01-1.28.139 2.35 2.35 0 01-.88-.118.825.825 0 01-.45-.72c0-.074-.009-.161-.014-.263.005-.143 0-.358-.021-.644a.86.86 0 00-.034-.166.159.159 0 00-.146-.056.662.662 0 00-.436.215 8.99 8.99 0 00-.319.388q-.381.456-1.128 1.385-.256-.16-.769-.492.547-.519 1.413-1.5a8.178 8.178 0 001.191-1.558 16.479 16.479 0 01-1.994.3 28.2 28.2 0 01-.09-.768 12.86 12.86 0 001.537-.1 4.318 4.318 0 001.454-.367l.52.581a13.544 13.544 0 00-1.233 1.372c.018 0 .048 0 .09-.007h.1a.726.726 0 01.5.176.6.6 0 01.2.474v.783a.363.363 0 00.139.339.844.844 0 00.374.055 5 5 0 001.315-.27m-1.731-4.466c-.032.162-.093.4-.18.727a10.9 10.9 0 01-2.112-.284l.2-.754a6.7 6.7 0 002.091.311" fill="#231815"/><path data-name="パス 3829" d="M177.02 6.151a1.594 1.594 0 01-.692 1.391 2.626 2.626 0 01-1.551.43 2.223 2.223 0 01-.962-.194.791.791 0 01-.541-.734.651.651 0 01.333-.568 1.206 1.206 0 01.664-.187.979.979 0 01.727.28 1.064 1.064 0 01.3.724 1.3 1.3 0 00.623-.36.944.944 0 00.263-.665.955.955 0 00-.36-.8 1.316 1.316 0 00-.852-.263 2.058 2.058 0 00-1.3.5q-.193.16-1 1.012l-.644-.562a15 15 0 002.624-2.921q-.506.1-1.661.3l-.153-.817c.092.005.167.007.222.007a8.771 8.771 0 00.921-.069q.789-.09 1.267-.194c.069-.014.215-.053.436-.118l.478.554a2.1 2.1 0 00-.2.153 5.722 5.722 0 00-.457.464c-.115.129-.437.51-.962 1.142a2.94 2.94 0 01.636-.062 2.07 2.07 0 011.282.381 1.391 1.391 0 01.56 1.177m-2.472 1.17c-.051-.319-.17-.478-.36-.478-.143 0-.214.063-.214.187q0 .291.574.291" fill="#231815"/><path data-name="パス 3830" d="M180.212 6.144c0 .05-.03.085-.09.1a7.942 7.942 0 01-.491 1.634l-.616-.263a6.108 6.108 0 00.456-1.787l.692.242a.065.065 0 01.049.07m1.8-.6l-.546.235-.125-.353c-.083.009-.208.025-.374.048v2.747h-.727V5.538l-1.032.082-.076-.595a.883.883 0 00.519-.1 5.2 5.2 0 00.561-.692 6.426 6.426 0 00-.983-.333v-.318a7.4 7.4 0 001.26-1.7l.776.346c.1.047.152.09.152.132 0 .088-.072.125-.215.111q-.352.36-1.08 1.059.291.153.443.222c.024-.028.155-.212.4-.554l.651.388a.1.1 0 01.062.09c0 .078-.062.115-.187.111q-.734.829-1.129 1.218.028 0 .8-.062a2.544 2.544 0 00-.181-.4l.555-.228q.257.567.484 1.226m-.131 1.439l-.512.2q-.132-.5-.257-1.142l.5-.18c.056.249.145.623.27 1.121m3.6 1.1h-4V7.49h.588V2.338h2.86v5.145h.553zm-1.356-5.083h-1.288v1.032h1.288zm0 1.641h-1.288v1.046h1.288zm-.007 1.641h-1.281V7.49h1.281z" fill="#231815"/><path data-name="パス 3831" d="M187.8 6.054a.09.09 0 01-.063.083 7.38 7.38 0 01-.457 1.689l-.582-.263a5.279 5.279 0 00.4-1.787q.228.071.665.229c.028.014.042.03.042.049m5.629 1.71l-.637.533a4.408 4.408 0 01-.817-1.1 4.016 4.016 0 01-1.62 1.046l-.548-.478c.171-.051.424-.144.762-.277h-1.35v-.381l-.382.138a20.289 20.289 0 01-.241-1.17l.484-.166q.042.27.139.8V5.442l-.485.2-.1-.312-.1.021v2.825h-.706V5.42q-.312.042-.935.118l-.076-.6a3.268 3.268 0 00.367-.048 8.507 8.507 0 00.554-.72 5.132 5.132 0 00-.81-.367v-.3a7.63 7.63 0 001.107-1.661l.824.373a.107.107 0 01.07.1c0 .074-.063.116-.187.125q-.318.352-.976 1.046c.069.045.172.113.311.2q.14-.18.388-.567a3.881 3.881 0 01.672.539.073.073 0 01-.056.07.1.1 0 01-.09 0q-.36.395-1.086 1.17c.133-.009.331-.025.6-.048-.032-.093-.079-.229-.139-.409l.512-.215.1.3v-.291h.485a9.728 9.728 0 00-.318-.775l.657-.187q.153.492.222.789-.146.055-.429.173h.616q.138-.512.243-.983h-1.49v-.561h.824v-.748l.762.056c.069 0 .1.032.1.083s-.035.092-.1.111v.5h.589v.561h-.561l.575.256a.086.086 0 01.055.077q0 .082-.138.1l-.243.554h.485a79.931 79.931 0 01-.034-2.243l.817.111c.1.013.144.053.144.117 0 .046-.048.088-.144.125q-.036.546-.035 1.655v.2h1.163v.588h-1.149q.014.374.027.533a3.927 3.927 0 00.083.533 5.524 5.524 0 00.353-.872l.672.54a.137.137 0 01.062.1c0 .069-.057.1-.173.083q-.18.319-.574.928a3.482 3.482 0 00.921 1.122m-1.759-1.205a6.606 6.606 0 01-.333-1.752h-2.278c.038.12.09.3.16.533v-.256h1.925v2.043a3.881 3.881 0 00.526-.568m-1.2-.976h-.6v.437h.6zm0 .928h-.6v.491h.6zm2.937-3.726c0 .055-.042.088-.125.1q-.262.484-.533.9l-.554-.249q.09-.235.388-1.205l.754.36a.108.108 0 01.07.1" fill="#231815"/><path data-name="パス 3832" d="M197.611 3.533h-2.7v-.6h1.038v-.956l.831.056c.074 0 .111.032.111.083s-.037.088-.111.11v.707h.831zm3.608 3.088c0 .047-.035.07-.1.07a.419.419 0 01-.1-.014 7.073 7.073 0 01-1.787 1.17 6.462 6.462 0 01-1.391.512l-.526-.491v.242h-2.085V5.901h2.085v1.925a5.955 5.955 0 003.317-1.925q.263.291.588.72m.291-2.056l-.6.54a4.72 4.72 0 01-1-.955 7.7 7.7 0 01-.79-1.143 4.72 4.72 0 01-.686 1.066 3.409 3.409 0 01-.956.824l-.525-.38h-1.634v-.6h1.9v.367a3.473 3.473 0 00.949-1.08 4.788 4.788 0 00.539-1.337l.81.118c.065.009.1.042.1.1 0 .028-.031.063-.091.1a4.262 4.262 0 00.825 1.322 5.531 5.531 0 001.156 1.053m-4.286.928h-1.891V4.9h1.891zm-.63.928h-.665v1.143h.665zm3.109-1.814c0 .069-.052.1-.16.083a5.9 5.9 0 01-1.655 1.205l-.477-.437a4 4 0 001.731-1.509 6.423 6.423 0 01.561.658m.776.969c0 .069-.066.1-.195.083a7.29 7.29 0 01-1.094.8 7.167 7.167 0 01-1.218.61l-.472-.478a5.08 5.08 0 002.376-1.745c.4.471.6.713.6.727" fill="#231815"/><path data-name="パス 3833" d="M208.9 4.793h-.637v3.414h-.783V4.793h-.533a7.23 7.23 0 01-.294 2.292 2.651 2.651 0 01-.745 1.219l-.678-.423h-2.465v-5.4l.741.07c.046.005.069.023.069.055s-.016.044-.048.063v3.33a4.153 4.153 0 00.492-.61 2.6 2.6 0 00.366-.664h-.72v-.582h.831V2.191l.734.048c.079.005.118.037.118.1 0 .042-.044.076-.132.1v1.1a5.626 5.626 0 00.319-1.053l.616.284v-.235l.526.041.222-.048a5.716 5.716 0 001.364-.45q.111.145.554.768c0 .061-.035.09-.1.09a.155.155 0 01-.1-.027q-.623.1-1.662.2v1.094h1.946zm-2.707.028q0-.125-.042-1.9l-.021.007a8.09 8.09 0 01-.443.9l-.471-.242v.56H206v.582h-.762a3.916 3.916 0 00.817.928l-.4.574a3.733 3.733 0 01-.43-.539v1.405h-.72V5.815a4.037 4.037 0 01-.657.893l-.319-.567v1.135h1.953v.381a2.789 2.789 0 00.609-1.343 8.4 8.4 0 00.1-1.489m-1.766-1.191l-.554.215q-.082-.32-.312-1.184l.6-.271q.194.812.263 1.24" fill="#231815"/><path data-name="パス 3834" d="M69.988 49.529l21.987-29.03 8.582-.007-22.006 29.037z" fill="#040000"/><path data-name="パス 3835" d="M79.737 33.758L69.72 20.499l-8.582-.007 10.036 13.266z" fill="#040000"/><path data-name="パス 3836" d="M172.4 13.61h-32.17l-5.4 7.133h23.47l-5.034 6.606h-9.214l-16.323 22.068 8.427.1 11.106-15.012 9.287-.032z" fill="#040000"/><path data-name="パス 3837" d="M204.961 20.491h-22.976l5.187-6.86-8.583-.006L163 34.185l8.572.035 4.741-6.23h10.056l-16.165 21.539h8.545l16.188-21.539h4.331z" fill="#040000"/><path data-name="パス 3838" d="M193.423 18.79l3.915-5.165h5.4l-3.915 5.165z" fill="#040000"/><path data-name="パス 3839" d="M200.587 18.79l3.915-5.165h5.4l-3.914 5.165z" fill="#040000"/><path data-name="パス 3840" d="M133.351 20.506H108.26l-5.378 7.158 15.435-.024L107.1 42.397l-15.415.017-5.438 7.122H111.3z" fill="#040000"/><path data-name="パス 3841" d="M1.774 49.635h18.159l4.747-1.764a57.826 57.826 0 01-5.481-5.11C14.768 44.94 5.518 48.04 1.774 49.635" fill="#00a6ac"/><path data-name="パス 3842" d="M47.643 24.446a55.552 55.552 0 00-9.391-3.528s-.781 1.193-1.963 3.191a12.1 12.1 0 00-1.077 2.283 28.505 28.505 0 016.146 1.919c1.967 1.036 1.37 3.217-.581 4.339a130.563 130.563 0 01-13.9 6.582 58.242 58.242 0 005.444 4.877 56.8 56.8 0 0010.487-4.747c5.479-3.269 7.237-5.292 8.678-8.171 1.236-2.468-1.224-5.442-3.843-6.745" fill="#00a6ac"/><path data-name="パス 3843" d="M43.073 39.187a50.134 50.134 0 01-5.016 2.627 42.828 42.828 0 01-3.653 1.517 69.688 69.688 0 008.6 6.39h14.009c-3.712-2.343-12.024-8.837-13.941-10.534" fill="#fabf13"/><path data-name="パス 3844" d="M40.893 12.678c4.844-4.2 13.8-10.9 13.8-10.9s-5.119 2.089-15.843 8.7a108.269 108.269 0 00-16.446 12.855c-5.534 5.219-9.312 10.662-5.759 16.11a37.508 37.508 0 0010.639 10.281h12.244a136.8 136.8 0 01-11.53-9.348c-2.864-2.69-4.953-5.534-4.5-7.418.689-2.88 3.278-5.058 6.548-8.743 4.485-5.052 7.559-8.683 10.848-11.534" fill="#e8380d"/><path data-name="パス 3845" d="M33.334 19.829c-4.94-.893-4.6-2.265-.22-5.466 2.643-1.931 5.56-3.687 8.027-5.209a137.828 137.828 0 0113.553-7.38S32.957 8.648 24.43 15.16c-3.668 2.8-4.753 6.76-.979 8.638a25.833 25.833 0 005.349 1.858s.61-.968 1.87-2.636a41.325 41.325 0 012.664-3.191" fill="#00a6ac"/><path data-name="パス 3846" d="M37.564 34.381a10.094 10.094 0 01-2.08-2.843 5.354 5.354 0 01-.7-3.486 25.457 25.457 0 013.455-7.133 80.689 80.689 0 018-10.039c4.484-5.009 8.459-9.106 8.459-9.106S48.525 6.26 40.606 12.926c-4.1 3.446-8.687 7.676-11.765 12.674-3.512 5.7-.938 9.669 1.232 12.3a75.867 75.867 0 007.495-3.521" fill="#fabf13"/></svg>